<svg width="92" height="92" viewBox="0 0 92 92" fill="none" xmlns="http://www.w3.org/2000/svg">
<path d="M89.125 51.75H86.25C86.25 56.5417 83.8841 60.8841 79.1523 64.7773C74.4206 68.6706 68.2812 71.4557 60.7344 73.1328C57.7396 74.6302 55.4935 75.9329 53.9961 77.041C52.4987 78.1491 51.75 79.3021 51.75 80.5C51.75 82.1172 52.304 83.4798 53.4121 84.5879C54.5202 85.696 55.8828 86.25 57.5 86.25H60.375C61.1536 86.25 61.8275 86.5345 62.3965 87.1035C62.9655 87.6725 63.25 88.3464 63.25 89.125C63.25 89.9036 62.9655 90.5775 62.3965 91.1465C61.8275 91.7155 61.1536 92 60.375 92H31.625C30.8464 92 30.1725 91.7155 29.6035 91.1465C29.0345 90.5775 28.75 89.9036 28.75 89.125C28.75 88.3464 29.0345 87.6725 29.6035 87.1035C30.1725 86.5345 30.8464 86.25 31.625 86.25H34.5C36.0573 86.25 37.4049 85.681 38.543 84.543C39.681 83.4049 40.25 82.0573 40.25 80.5C40.25 79.3021 39.5013 78.1491 38.0039 77.041C36.5065 75.9329 34.2604 74.6302 31.2656 73.1328C23.7188 71.4557 17.5794 68.6706 12.8477 64.7773C8.11589 60.8841 5.75 56.5417 5.75 51.75H2.875C2.09635 51.75 1.42253 51.4655 0.853516 50.8965C0.284505 50.3275 0 49.6536 0 48.875C0 48.0964 0.284505 47.4225 0.853516 46.8535C1.42253 46.2845 2.09635 46 2.875 46H40.25V34.5C40.25 32.8828 40.819 31.5202 41.957 30.4121C43.0951 29.304 44.4577 28.75 46.0449 28.75C47.6322 28.75 48.9798 29.304 50.0879 30.4121C51.196 31.5202 51.75 32.8828 51.75 34.5V46H89.125C89.9036 46 90.5775 46.2845 91.1465 46.8535C91.7155 47.4225 92 48.0964 92 48.875C92 49.6536 91.7155 50.3275 91.1465 50.8965C90.5775 51.4655 89.9036 51.75 89.125 51.75ZM83.375 34.5C82.5964 34.5 81.9225 34.2155 81.3535 33.6465C80.7845 33.0775 80.5 32.4036 80.5 31.625C80.5 30.8464 80.7845 30.1725 81.3535 29.6035C81.9225 29.0345 82.5964 28.75 83.375 28.75C84.1536 28.75 84.8275 29.0345 85.3965 29.6035C85.9655 30.1725 86.25 30.8464 86.25 31.625C86.25 32.4036 85.9655 33.0775 85.3965 33.6465C84.8275 34.2155 84.1536 34.5 83.375 34.5ZM83.375 23C82.5964 23 81.9225 22.7155 81.3535 22.1465C80.7845 21.5775 80.5 20.9036 80.5 20.125C80.5 19.3464 80.7845 18.6725 81.3535 18.1035C81.9225 17.5345 82.5964 17.25 83.375 17.25C84.1536 17.25 84.8275 17.5345 85.3965 18.1035C85.9655 18.6725 86.25 19.3464 86.25 20.125C86.25 20.9036 85.9655 21.5775 85.3965 22.1465C84.8275 22.7155 84.1536 23 83.375 23ZM77.625 11.5C76.8464 11.5 76.1725 11.2155 75.6035 10.6465C75.0345 10.0775 74.75 9.40365 74.75 8.625C74.75 7.84635 75.0345 7.17253 75.6035 6.60352C76.1725 6.03451 76.8464 5.75 77.625 5.75C78.4036 5.75 79.0775 6.03451 79.6465 6.60352C80.2155 7.17253 80.5 7.84635 80.5 8.625C80.5 9.40365 80.2155 10.0775 79.6465 10.6465C79.0775 11.2155 78.4036 11.5 77.625 11.5ZM66.125 5.75C65.3464 5.75 64.6725 5.46549 64.1035 4.89648C63.5345 4.32747 63.25 3.65365 63.25 2.875C63.25 2.09635 63.5345 1.42253 64.1035 0.853516C64.6725 0.284505 65.3464 0 66.125 0C66.9036 0 67.5775 0.284505 68.1465 0.853516C68.7155 1.42253 69 2.09635 69 2.875C69 3.65365 68.7155 4.32747 68.1465 4.89648C67.5775 5.46549 66.9036 5.75 66.125 5.75ZM54.625 11.5C53.8464 11.5 53.1725 11.2155 52.6035 10.6465C52.0345 10.0775 51.75 9.40365 51.75 8.625C51.75 7.84635 52.0345 7.17253 52.6035 6.60352C53.1725 6.03451 53.8464 5.75 54.625 5.75C55.4036 5.75 56.0775 6.03451 56.6465 6.60352C57.2155 7.17253 57.5 7.84635 57.5 8.625C57.5 9.40365 57.2155 10.0775 56.6465 10.6465C56.0775 11.2155 55.4036 11.5 54.625 11.5ZM43.125 23C43.9036 23 44.5775 23.2845 45.1465 23.8535C45.7155 24.4225 46 25.0964 46 25.875C46 26.6536 45.7155 27.3275 45.1465 27.8965C44.5775 28.4655 43.9036 28.75 43.125 28.75C42.3464 28.75 41.6725 28.4655 41.1035 27.8965C40.5345 27.3275 40.25 26.6536 40.25 25.875C40.25 25.0964 40.5345 24.4225 41.1035 23.8535C41.6725 23.2845 42.3464 23 43.125 23ZM48.875 23C49.6536 23 50.3275 23.2845 50.8965 23.8535C51.4655 24.4225 51.75 25.0964 51.75 25.875C51.75 26.6536 51.4655 27.3275 50.8965 27.8965C50.3275 28.4655 49.6536 28.75 48.875 28.75C48.0964 28.75 47.4225 28.4655 46.8535 27.8965C46.2845 27.3275 46 26.6536 46 25.875C46 25.0964 46.2845 24.4225 46.8535 23.8535C47.4225 23.2845 48.0964 23 48.875 23ZM48.875 17.25C48.0964 17.25 47.4225 16.9655 46.8535 16.3965C46.2845 15.8275 46 15.1536 46 14.375C46 13.5964 46.2845 12.9225 46.8535 12.3535C47.4225 11.7845 48.0964 11.5 48.875 11.5C49.6536 11.5 50.3275 11.7845 50.8965 12.3535C51.4655 12.9225 51.75 13.5964 51.75 14.375C51.75 15.1536 51.4655 15.8275 50.8965 16.3965C50.3275 16.9655 49.6536 17.25 48.875 17.25ZM43.125 17.25C42.3464 17.25 41.6725 16.9655 41.1035 16.3965C40.5345 15.8275 40.25 15.1536 40.25 14.375C40.25 13.5964 40.5345 12.9225 41.1035 12.3535C41.6725 11.7845 42.3464 11.5 43.125 11.5C43.9036 11.5 44.5775 11.7845 45.1465 12.3535C45.7155 12.9225 46 13.5964 46 14.375C46 15.1536 45.7155 15.8275 45.1465 16.3965C44.5775 16.9655 43.9036 17.25 43.125 17.25ZM37.375 11.5C36.5964 11.5 35.9225 11.2155 35.3535 10.6465C34.7845 10.0775 34.5 9.40365 34.5 8.625C34.5 7.84635 34.7845 7.17253 35.3535 6.60352C35.9225 6.03451 36.5964 5.75 37.375 5.75C38.1536 5.75 38.8275 6.03451 39.3965 6.60352C39.9655 7.17253 40.25 7.84635 40.25 8.625C40.25 9.40365 39.9655 10.0775 39.3965 10.6465C38.8275 11.2155 38.1536 11.5 37.375 11.5ZM25.875 5.75C25.0964 5.75 24.4225 5.46549 23.8535 4.89648C23.2845 4.32747 23 3.65365 23 2.875C23 2.09635 23.2845 1.42253 23.8535 0.853516C24.4225 0.284505 25.0964 0 25.875 0C26.6536 0 27.3275 0.284505 27.8965 0.853516C28.4655 1.42253 28.75 2.09635 28.75 2.875C28.75 3.65365 28.4655 4.32747 27.8965 4.89648C27.3275 5.46549 26.6536 5.75 25.875 5.75ZM14.375 11.5C13.5964 11.5 12.9225 11.2155 12.3535 10.6465C11.7845 10.0775 11.5 9.40365 11.5 8.625C11.5 7.84635 11.7845 7.17253 12.3535 6.60352C12.9225 6.03451 13.5964 5.75 14.375 5.75C15.1536 5.75 15.8275 6.03451 16.3965 6.60352C16.9655 7.17253 17.25 7.84635 17.25 8.625C17.25 9.40365 16.9655 10.0775 16.3965 10.6465C15.8275 11.2155 15.1536 11.5 14.375 11.5ZM8.625 28.75C9.40365 28.75 10.0775 29.0345 10.6465 29.6035C11.2155 30.1725 11.5 30.8464 11.5 31.625C11.5 32.4036 11.2155 33.0775 10.6465 33.6465C10.0775 34.2155 9.40365 34.5 8.625 34.5C7.84635 34.5 7.17253 34.2155 6.60352 33.6465C6.03451 33.0775 5.75 32.4036 5.75 31.625C5.75 30.8464 6.03451 30.1725 6.60352 29.6035C7.17253 29.0345 7.84635 28.75 8.625 28.75ZM8.625 23C7.84635 23 7.17253 22.7155 6.60352 22.1465C6.03451 21.5775 5.75 20.9036 5.75 20.125C5.75 19.3464 6.03451 18.6725 6.60352 18.1035C7.17253 17.5345 7.84635 17.25 8.625 17.25C9.40365 17.25 10.0775 17.5345 10.6465 18.1035C11.2155 18.6725 11.5 19.3464 11.5 20.125C11.5 20.9036 11.2155 21.5775 10.6465 22.1465C10.0775 22.7155 9.40365 23 8.625 23Z" fill="#00ACC1"/>
</svg>
