<svg width="80" height="79" viewBox="0 0 80 79" fill="none" xmlns="http://www.w3.org/2000/svg">
<path d="M0 78.75V41.25L6.95625 23.9063C7.54514 22.2813 8.64931 21.0163 10.2688 20.1113C11.8882 19.2063 13.6181 18.7525 15.4583 18.75C16.0472 18.75 16.6361 18.7975 17.225 18.8925C17.8139 18.9875 18.4028 19.1588 18.9917 19.4063L37.3208 26.25H48.5833V33.75H35.3333L23.4083 29.3438L17.6667 44.0625V78.75H0ZM26.5 67.5V60H79.5V67.5H26.5ZM72.875 56.25C71.0347 56.25 69.4698 55.7025 68.1801 54.6075C66.8904 53.5125 66.2471 52.185 66.25 50.625C66.25 49.0625 66.8948 47.7338 68.1845 46.6388C69.4742 45.5438 71.0377 44.9975 72.875 45C74.7153 45 76.2803 45.5475 77.5699 46.6425C78.8596 47.7375 79.503 49.065 79.5 50.625C79.5 52.1875 78.8552 53.5163 77.5655 54.6113C76.2758 55.7063 74.7123 56.2525 72.875 56.25ZM44.1667 56.25C41.7375 56.25 39.6573 55.515 37.9259 54.045C36.1946 52.575 35.3304 50.81 35.3333 48.75V45H26.5V37.5H39.75C41.0014 37.5 42.0511 37.86 42.8991 38.58C43.7471 39.3 44.1696 40.19 44.1667 41.25V45H53V37.5H61.8333V48.75C61.8333 50.8125 60.9677 52.5788 59.2363 54.0488C57.505 55.5188 55.4262 56.2525 53 56.25H44.1667ZM22.0833 15C19.6542 15 17.5739 14.265 15.8426 12.795C14.1113 11.325 13.2471 9.56001 13.25 7.50001C13.25 5.43751 14.1157 3.67126 15.847 2.20126C17.5783 0.731256 19.6571 -0.00249363 22.0833 6.36672e-06C24.5125 6.36672e-06 26.5928 0.735007 28.3241 2.20501C30.0554 3.67501 30.9196 5.44001 30.9167 7.50001C30.9167 9.56251 30.051 11.3288 28.3197 12.7988C26.5883 14.2688 24.5096 15.0025 22.0833 15Z" fill="#FB8C00"/>
</svg>
