<svg width="90" height="90" viewBox="0 0 90 90" fill="none" xmlns="http://www.w3.org/2000/svg">
<mask id="mask0_136_51" style="mask-type:luminance" maskUnits="userSpaceOnUse" x="0" y="0" width="90" height="90">
<path d="M0 0H90V90H0V0Z" fill="white"/>
</mask>
<g mask="url(#mask0_136_51)">
<path d="M9.84375 39.5072H19.1644L15.9356 32.0822C14.7615 29.38 12.5742 27.2462 9.84375 26.1394V39.51V39.5072ZM9.84375 53.4825H25.2647C25.2126 53.3905 25.1638 53.2967 25.1184 53.2013L21.6309 45.18H9.84375V53.4825ZM9.84375 67.455H26.6737V59.1469H9.84375V67.455Z" fill="#1E88E5"/>
<path d="M30.4763 2.81237C27.2843 2.80972 24.2014 3.97404 21.8081 6.08612C19.9114 4.41649 17.5732 3.32956 15.0741 2.95576C12.575 2.58196 10.0211 2.93715 7.71885 3.97872C5.41659 5.02029 3.46374 6.704 2.0946 8.82784C0.725455 10.9517 -0.00182838 13.4255 3.45189e-06 15.9524V81.5624C3.45189e-06 83.0542 0.592636 84.4849 1.64753 85.5398C2.70242 86.5947 4.13316 87.1874 5.625 87.1874H9.84375C11.3356 87.1874 12.7663 86.5947 13.8212 85.5398C14.8761 84.4849 15.4688 83.0542 15.4688 81.5624V78.7499H21.0488V81.5624C21.0488 83.0542 21.6414 84.4849 22.6963 85.5398C23.7512 86.5947 25.1819 87.1874 26.6738 87.1874H30.8925C32.3843 87.1874 33.8151 86.5947 34.87 85.5398C35.9249 84.4849 36.5175 83.0542 36.5175 81.5624V65.0474L45.3909 83.953C45.8451 84.9202 46.5653 85.7381 47.4673 86.3109C48.3693 86.8837 49.4159 87.1877 50.4844 87.1874H84.375C85.3186 87.1872 86.2469 86.9496 87.0746 86.4966C87.9022 86.0436 88.6026 85.3896 89.1113 84.5949C89.62 83.8002 89.9206 82.8904 89.9855 81.9491C90.0503 81.0078 89.8774 80.0652 89.4825 79.2083L76.6884 51.4686C75.2217 48.3006 72.8809 45.6173 69.9414 43.734C67.0019 41.8507 63.5858 40.8458 60.0947 40.8374H59.7122L54.2194 28.1811C52.1408 23.3996 48.3671 19.5558 43.6247 17.3896V15.9833C43.6273 14.2548 43.2891 12.5428 42.6295 10.9451C41.97 9.34747 41.0019 7.89549 39.7807 6.67223C38.5596 5.44898 37.1092 4.47844 35.5127 3.81614C33.9162 3.15383 32.2047 2.81274 30.4763 2.81237ZM30.4763 8.43737C32.4694 8.43737 34.3808 9.22913 35.7902 10.6385C37.1995 12.0478 37.9913 13.9593 37.9913 15.9524V21.4142C40.4213 21.9173 42.6947 22.9977 44.6194 24.5641C46.5442 26.1305 48.0638 28.137 49.05 30.4142L56.0138 46.4455H60.0863C62.505 46.4453 64.8731 47.1382 66.9103 48.4421C68.9474 49.7461 70.5683 51.6064 71.5809 53.803L84.375 81.5624H79.7288L68.0625 56.2499L67.7503 55.5749C67.0752 54.1104 65.9944 52.87 64.6362 52.0007C63.2779 51.1314 61.6989 50.6696 60.0863 50.6699H55.0913C54.9234 50.67 54.7558 50.6549 54.5906 50.6249C54.1348 50.5427 53.7064 50.3493 53.3433 50.0618C52.9802 49.7743 52.6938 49.4016 52.5094 48.9767L45.1772 32.0849C44.3044 30.0731 42.8627 28.3603 41.0294 27.1571C39.1961 25.9539 37.051 25.3127 34.8581 25.3124H33.8372V25.2674L33.7725 25.3011V15.9524C33.7725 15.0781 33.4252 14.2397 32.8071 13.6216C32.1889 13.0034 31.3505 12.6561 30.4763 12.6561C29.602 12.6561 28.7636 13.0034 28.1455 13.6216C27.5273 14.2397 27.18 15.0781 27.18 15.9524V25.2674L22.9613 25.2646V15.9524C22.9613 13.9593 23.753 12.0478 25.1623 10.6385C26.5717 9.22913 28.4832 8.43737 30.4763 8.43737ZM20.655 25.2617L16.4363 25.2589V15.9467C16.4363 15.0725 16.089 14.2341 15.4708 13.6159C14.8526 12.9978 14.0142 12.6505 13.14 12.6505C12.2658 12.6505 11.4274 12.9978 10.8092 13.6159C10.191 14.2341 9.84375 15.0725 9.84375 15.9467V21.6842C12.2344 22.3649 14.4253 23.5967 16.2309 25.3039C17.7549 26.7461 18.9701 28.4828 19.8028 30.4086L28.6031 50.6249L28.6228 50.6699V50.6755H32.6953C34.6582 50.8276 36.5662 51.3962 38.2922 52.3433C41.0878 53.9914 43.4756 56.6549 44.7441 59.4055L55.1278 81.5624H50.4844L40.9219 61.1717C40.1915 59.5175 39.0554 58.0743 37.6188 56.976C36.1822 55.8776 34.4917 55.1597 32.7038 54.8886H30.9009V81.5624H26.6822V73.1249H9.84375V81.5624H5.625V15.9524C5.625 13.9593 6.41676 12.0478 7.8261 10.6385C9.23543 9.22913 11.1469 8.43737 13.14 8.43737C15.1331 8.43737 17.0446 9.22913 18.4539 10.6385C19.8632 12.0478 20.655 13.9593 20.655 15.9524V25.2617Z" fill="#1E88E5"/>
</g>
</svg>
