<svg width="130" height="89" viewBox="0 0 130 89" fill="none" xmlns="http://www.w3.org/2000/svg">
<path d="M14.4486 88.9977H115.551C125.169 88.9977 130 84.1957 130 74.6804V14.3196C130 4.80426 125.169 8.55324e-07 115.551 8.55324e-07H14.4486C4.87732 -0.00232905 0 4.75534 0 14.3196V74.6827C0 84.1981 4.87732 88.9977 14.4486 88.9977ZM14.5879 81.5653C9.98678 81.5653 7.41 79.0723 7.41 74.268V67.5719H20.3404C27.1491 67.5719 31.1536 63.5528 31.1536 56.7169V32.2365C31.1536 25.4006 27.1491 21.3839 20.3404 21.3839H7.41V14.6854C7.41 9.92772 9.98678 7.43472 14.5879 7.43472H61.1557V22.9985C50.895 24.662 43.1646 33.5762 43.1646 44.4755C43.1646 55.3748 50.895 64.289 61.1557 65.9992V81.5629L14.5879 81.5653ZM86.5591 44.4779C86.4662 33.6252 78.8752 24.8484 68.568 23.0474V7.43706H115.412C119.967 7.43706 122.59 9.93005 122.59 14.6877V21.3839H109.66C102.849 21.3839 98.8464 25.4029 98.8464 32.2389V56.7169C98.8464 63.5528 102.849 67.5695 109.66 67.5695H122.59V74.268C122.59 79.0699 119.967 81.5653 115.412 81.5653H68.5657V65.9969C78.9193 64.2401 86.6961 55.3725 86.5591 44.4732M109.797 60.1302C107.543 60.1302 106.254 58.8371 106.254 56.5747V32.374C106.254 30.1117 107.543 28.8186 109.797 28.8186H122.59V60.1325L109.797 60.1302ZM20.2034 28.8186C22.4598 28.8186 23.7482 30.1117 23.7482 32.374V56.5771C23.7482 58.8371 22.4598 60.1325 20.2034 60.1325H7.41232V28.8186H20.2034ZM49.8387 44.4289C49.8283 41.0814 50.9388 37.8274 52.9919 35.1892C55.045 32.551 57.9218 30.6816 61.1604 29.881V59.0701C54.7184 57.4065 49.8387 51.4513 49.8387 44.4289ZM79.8896 44.4289C79.7968 51.4489 75.01 57.4065 68.568 59.0701V29.9276C75.0564 31.5888 79.9338 37.4532 79.8896 44.4289Z" fill="#43A047"/>
</svg>
