<svg width="58" height="88" viewBox="0 0 58 88" fill="none" xmlns="http://www.w3.org/2000/svg">
<path d="M29 0C27.0772 0 25.2331 0.772617 23.8735 2.14788C22.5138 3.52315 21.75 5.38841 21.75 7.33333C21.75 9.27825 22.5138 11.1435 23.8735 12.5188C25.2331 13.8941 27.0772 14.6667 29 14.6667C30.9228 14.6667 32.7669 13.8941 34.1265 12.5188C35.4862 11.1435 36.25 9.27825 36.25 7.33333C36.25 5.38841 35.4862 3.52315 34.1265 2.14788C32.7669 0.772617 30.9228 0 29 0ZM29 14.6667H14.5V22H19.8251L18.2374 58.6667H7.25V80.6667H0V88H58V80.6667H50.75V58.6667H39.7626L38.1749 22H43.5V14.6667H29ZM27.0751 22H30.9249L32.5126 58.6667H25.4837L27.0751 22ZM14.5 66H43.5V80.6667H14.5V66Z" fill="#8E24AA"/>
</svg>
