<svg width="65" height="91" viewBox="0 0 65 91" fill="none" xmlns="http://www.w3.org/2000/svg">
<path d="M32.5 91C32.5 91 0.650024 49.4585 0.650024 31.85C0.650024 27.6674 1.47385 23.5258 3.07446 19.6615C4.67507 15.7973 7.02113 12.2862 9.97867 9.32865C12.9362 6.3711 16.4473 4.02505 20.3116 2.42444C24.1758 0.823825 28.3174 0 32.5 0C36.6826 0 40.8243 0.823825 44.6885 2.42444C48.5527 4.02505 52.0638 6.3711 55.0214 9.32865C57.9789 12.2862 60.325 15.7973 61.9256 19.6615C63.5262 23.5258 64.35 27.6674 64.35 31.85C64.35 49.4585 32.5 91 32.5 91ZM32.5 40.95C34.9135 40.95 37.2281 39.9913 38.9347 38.2847C40.6413 36.5781 41.6 34.2635 41.6 31.85C41.6 29.4365 40.6413 27.1219 38.9347 25.4153C37.2281 23.7087 34.9135 22.75 32.5 22.75C30.0866 22.75 27.7719 23.7087 26.0654 25.4153C24.3588 27.1219 23.4 29.4365 23.4 31.85C23.4 34.2635 24.3588 36.5781 26.0654 38.2847C27.7719 39.9913 30.0866 40.95 32.5 40.95Z" fill="black"/>
</svg>
