<svg width="98" height="87" viewBox="0 0 98 87" fill="none" xmlns="http://www.w3.org/2000/svg">
<path d="M97.7988 79.0288L97.8256 79.0139L89.3537 64.545H92.6878V64.5301C93.3832 64.5301 93.9472 63.9751 93.9472 63.2893C93.9472 63.0772 93.8786 62.8868 93.7844 62.7125L93.8065 62.6999L85.972 49.3182H87.878V49.3078C88.1162 49.3078 88.3447 49.2146 88.5132 49.0486C88.6818 48.8826 88.7766 48.6574 88.7769 48.4225C88.7735 48.2779 88.7335 48.1364 88.6606 48.0108L88.6757 48.0017L77.2769 28.5306L77.2652 28.5375C77.141 28.28 76.9457 28.0624 76.7018 27.9094C76.4578 27.7565 76.1751 27.6745 75.886 27.6728C75.2766 27.6728 74.7603 28.0294 74.508 28.5352L74.5021 28.5317L63.1032 48.0017L63.1056 48.0028C63.0289 48.13 62.9869 48.2746 62.9835 48.4225C62.9835 48.9111 63.3858 49.3078 63.8824 49.3078V49.3182H65.814L57.9795 62.6999L57.9829 62.701C57.876 62.8795 57.8172 63.082 57.812 63.2893C57.812 63.9751 58.376 64.5301 59.0714 64.5301V64.545H62.4369L59.9948 68.717L50.2275 52.0337H54.9326V52.0131C55.9141 52.0131 56.7095 51.2275 56.7095 50.2608C56.7095 49.9626 56.627 49.6851 56.4932 49.4386L56.5107 49.4282L45.4549 30.5443H48.1447V30.5306C48.3114 30.5307 48.4766 30.4984 48.6306 30.4355C48.7847 30.3726 48.9247 30.2804 49.0426 30.164C49.1604 30.0477 49.2538 29.9096 49.3175 29.7576C49.3811 29.6056 49.4137 29.4427 49.4134 29.2783C49.4134 29.065 49.3448 28.8735 49.2494 28.698L49.2715 28.6854L33.1838 1.21214L33.178 1.21558C33.0004 0.852172 32.7227 0.545415 32.3765 0.330434C32.0304 0.115453 31.6298 0.00093803 31.2208 0C30.3393 0 29.5834 0.518342 29.2392 1.26145L13.1828 28.6854L13.1863 28.6877C13.0784 28.8671 13.0191 29.0709 13.0142 29.2794C13.0139 29.4438 13.0464 29.6066 13.11 29.7585C13.1736 29.9104 13.2669 30.0485 13.3846 30.1648C13.5024 30.2811 13.6422 30.3734 13.7961 30.4363C13.9501 30.4993 14.1151 30.5317 14.2818 30.5317V30.5455H17.0088L6.08321 49.2058C5.84652 49.5081 5.71737 49.8789 5.71573 50.2608C5.71573 51.2287 6.51232 52.0131 7.49266 52.0131V52.0337H12.242L0.450048 72.1768C0.170949 72.5369 0 72.9818 0 73.4704C0 74.6538 0.974523 75.6148 2.17581 75.6148V75.6389H25.1771V85.3062C25.1771 86.2408 25.9458 87 26.8936 87H35.4794C36.4271 87 37.197 86.242 37.197 85.3062V75.6389H55.9432L53.9674 79.0139L53.9709 79.0162C53.8499 79.2329 53.7616 79.4703 53.7616 79.7363C53.7616 80.5758 54.4512 81.2558 55.3024 81.2558V81.273H71.6018V85.7924C71.6018 86.4553 72.1472 86.992 72.8182 86.992H78.9026C79.5748 86.992 80.119 86.4553 80.119 85.7924V81.273H96.458V81.2558C97.3092 81.2558 98 80.5758 98 79.7363C97.9941 79.4876 97.9249 79.2443 97.7988 79.0288Z" fill="black"/>
</svg>
