<svg width="95" height="93" viewBox="0 0 95 93" fill="none" xmlns="http://www.w3.org/2000/svg">
<path d="M48.6127 8.95499C48.6127 11.33 47.6693 13.6077 45.9899 15.2871C44.3105 16.9665 42.0328 17.91 39.6577 17.91C37.2827 17.91 35.005 16.9665 33.3256 15.2871C31.6462 13.6077 30.7028 11.33 30.7028 8.95499C30.7028 6.57998 31.6462 4.30224 33.3256 2.62285C35.005 0.943469 37.2827 0 39.6577 0C42.0328 0 44.3105 0.943469 45.9899 2.62285C47.6693 4.30224 48.6127 6.57998 48.6127 8.95499Z" fill="black"/>
<path fill-rule="evenodd" clip-rule="evenodd" d="M5.11713 26.2713C4.33929 26.7204 3.69337 27.3664 3.24429 28.1443C2.79521 28.9222 2.55879 29.8045 2.55879 30.7027C2.55879 31.6009 2.79521 32.4833 3.24429 33.2612C3.69337 34.0391 4.33929 34.685 5.11713 35.1342V66.9602C3.62059 67.4897 2.32496 68.47 1.40856 69.7663C0.492171 71.0625 7.0959e-05 72.6109 0 74.1984V89.5498H5.11713V79.3155H10.2343V89.5498H15.3514V74.1984C15.3519 72.6105 14.86 71.0615 13.9436 69.7648C13.0271 68.468 11.7312 67.4873 10.2343 66.9576V35.8199H25.5857V86.9912C25.5857 88.3484 26.1248 89.6499 27.0844 90.6096C28.0441 91.5692 29.3457 92.1084 30.7028 92.1084C32.06 92.1084 33.3615 91.5692 34.3212 90.6096C35.2808 89.6499 35.8199 88.3484 35.8199 86.9912V63.9641H43.4956V86.9912C43.4956 88.3484 44.0348 89.6499 44.9944 90.6096C45.9541 91.5692 47.2556 92.1084 48.6128 92.1084C49.9699 92.1084 51.2715 91.5692 52.2311 90.6096C53.1908 89.6499 53.7299 88.3484 53.7299 86.9912V56.0761C57.5168 55.4243 60.9217 53.3765 63.2725 50.337C65.6233 47.2974 66.7492 43.487 66.4279 39.658C66.1066 35.8289 64.3614 32.2594 61.5369 29.6541C58.7124 27.0489 55.0139 25.5972 51.1713 25.5856H10.2343V17.9099H5.11713V26.2713ZM58.847 40.937C58.847 39.5799 58.3079 38.2783 57.3483 37.3187C56.3886 36.359 55.0871 35.8199 53.7299 35.8199V46.0542C55.0871 46.0542 56.3886 45.515 57.3483 44.5554C58.3079 43.5957 58.847 42.2942 58.847 40.937Z" fill="black"/>
<path d="M81.6541 29.6667C81.7992 29.9929 81.8742 30.3459 81.8741 30.7029V89.55C81.8741 90.2285 81.6046 90.8793 81.1248 91.3591C80.6449 91.839 79.9941 92.1085 79.3156 92.1085C78.637 92.1085 77.9862 91.839 77.5064 91.3591C77.0266 90.8793 76.757 90.2285 76.757 89.55V64.105C76.7544 65.4329 76.6547 66.3566 76.6547 66.3566C76.6547 66.3566 69.1632 67.3621 66.208 64.4376C63.2554 61.5132 64.0665 53.8963 64.0665 53.8963C64.0665 53.8963 71.558 52.8908 74.5131 55.8153C76.4014 57.683 76.7493 61.4697 76.757 63.9592V30.7029C76.757 30.3345 76.8338 29.9814 76.977 29.6667C75.1502 27.6403 72.9192 24.5854 72.9192 21.7479C72.9192 16.9455 79.3156 11.5137 79.3156 11.5137C79.3156 11.5137 85.712 16.9455 85.712 21.7479C85.712 24.5854 83.4809 27.6403 81.6541 29.6667Z" fill="black"/>
<path d="M84.118 73.7251C87.0732 70.8033 94.5646 71.8062 94.5646 71.8062C94.5646 71.8062 95.3757 79.4231 92.4231 82.3475C89.468 85.2694 81.9765 84.2664 81.9765 84.2664C81.9765 84.2664 81.1654 76.6496 84.118 73.7251ZM94.5646 35.9863C94.5646 35.9863 87.0732 34.9808 84.118 37.9052C81.1654 40.8296 81.9765 48.4465 81.9765 48.4465C81.9765 48.4465 89.468 49.452 92.4231 46.5276C95.3757 43.6031 94.5646 35.9863 94.5646 35.9863Z" fill="black"/>
</svg>
